<?xml version="1.0" encoding="UTF-8" standalone="no"?>
<!-- Created with Inkscape (http://www.inkscape.org/) -->

<svg
   width="74.348572"
   height="74.410278"
   viewBox="0 0 74.348573 74.410278"
   version="1.1"
   id="svg5"
   xml:space="preserve"
   inkscape:version="1.2.2 (b0a8486541, 2022-12-01)"
   sodipodi:docname="Reystation site.svg"
   xmlns:inkscape="http://www.inkscape.org/namespaces/inkscape"
   xmlns:sodipodi="http://sodipodi.sourceforge.net/DTD/sodipodi-0.dtd"
   xmlns="http://www.w3.org/2000/svg"
   xmlns:svg="http://www.w3.org/2000/svg"><sodipodi:namedview
     id="namedview7"
     pagecolor="#ffffff"
     bordercolor="#000000"
     borderopacity="0.25"
     inkscape:showpageshadow="2"
     inkscape:pageopacity="0.0"
     inkscape:pagecheckerboard="0"
     inkscape:deskcolor="#d1d1d1"
     inkscape:document-units="px"
     showgrid="false"
     inkscape:zoom="0.24583334"
     inkscape:cx="1338.3051"
     inkscape:cy="1368.8135"
     inkscape:window-width="1366"
     inkscape:window-height="707"
     inkscape:window-x="0"
     inkscape:window-y="0"
     inkscape:window-maximized="1"
     inkscape:current-layer="layer4"
     showguides="true"
     inkscape:lockguides="false"><sodipodi:guide
       position="-52.769185,1445.4948"
       orientation="1,0"
       id="guide5387"
       inkscape:locked="false" /><sodipodi:guide
       position="1619.3819,1647.1175"
       orientation="1,0"
       id="guide5495"
       inkscape:locked="false" /><sodipodi:guide
       position="-176.27087,946.30648"
       orientation="1,0"
       id="guide5783"
       inkscape:locked="false" /><sodipodi:guide
       position="1742.6476,888.77918"
       orientation="1,0"
       id="guide5785"
       inkscape:locked="false" /></sodipodi:namedview><defs
     id="defs2" /><g
     inkscape:groupmode="layer"
     id="layer3"
     inkscape:label="My services"
     transform="translate(-176.63041,-1628.3806)"><g
       aria-label="ã‚"
       transform="rotate(-8.3535974)"
       id="text404"
       style="font-size:92.1191px;font-family:Montserrat;-inkscape-font-specification:Montserrat;stroke-width:13.048"><path
         d="m -21.316329,1672.7643 c -3.821367,10.1902 -9.371449,17.5601 -15.376456,23.2921 -1.000834,-5.2771 -1.637729,-10.8272 -1.637729,-16.6502 l 0.09099,-3.7304 c 4.185308,-1.5467 9.462435,-2.9115 15.376457,-2.9115 z m 10.372284,-10.0084 -7.18781,-1.8197 c -0.09099,1.5467 -0.54591,3.9123 -1.000835,5.2771 l -0.272954,0.9099 -3.366443,-0.091 c -4.640232,0 -10.190315,0.8188 -15.285471,2.2746 0.272954,-3.8214 0.545909,-7.6428 0.909849,-11.1911 11.191148,-0.5459 23.292146,-1.8198 32.8455657,-3.4574 l -0.090985,-6.7329 c -9.2804647,2.1836 -20.3806287,3.3664 -31.9357167,3.9123 l 1.09182,-6.9149 c 0.272955,-1.2737 0.636894,-2.9115 1.091819,-4.0942 l -7.642736,-0.1821 c 0.09099,1.0919 -0.09099,2.7296 -0.18197,4.3673 l -0.727879,7.0059 -6.186977,0.091 c -3.912352,0 -11.828043,-0.6368 -15.012516,-1.1827 l 0.181971,6.8238 c 3.730382,0.273 10.827208,0.637 14.73956,0.637 l 5.550082,-0.091 c -0.363939,4.2763 -0.818864,8.8256 -1.000834,13.3748 -12.555923,5.8231 -22.746237,17.7421 -22.746237,29.4791 0,7.7338 4.731217,11.4641 10.736224,11.4641 5.004172,0 10.463269,-2.0016 15.467441,-5.0041 l 1.455759,5.0952 6.550916,-2.0018 c -0.72788,-2.2745 -1.455758,-4.7312 -2.183638,-7.3697 7.733721,-6.551 15.103501,-16.6503 20.289643,-29.5701 8.4615999,2.4566 13.1018322,8.6435 13.1018322,15.5584 0,11.828 -10.1903142,20.2896 -26.6585902,22.0184 l 3.912354,6.096 c 21.1085072,-3.3665 29.7520772,-14.6486 29.7520772,-27.7505 0,-10.0083 -6.7328861,-18.3789 -18.1060042,-21.3815 l 0.09099,-0.3638 c 0.454925,-1.4558 1.273789,-3.9125 1.819699,-5.1862 z m -33.755415,15.7404 v 1.6377 c 0,6.8239 0.909849,14.1937 2.183639,20.6536 -4.640233,3.2754 -9.00751,4.8222 -12.555923,4.8222 -3.457428,0 -5.186141,-1.9106 -5.186141,-5.641 0,-7.4608 6.732885,-16.4684 15.558425,-21.4725 z"
         style="font-family:sans-serif;-inkscape-font-specification:sans-serif;stroke-width:12.8874"
         id="path508" /></g></g></svg>
