<?xml version="1.0" encoding="UTF-8" standalone="no"?>
<!-- Created with Inkscape (http://www.inkscape.org/) -->

<svg
   width="61.054138"
   height="80.095093"
   viewBox="0 0 61.054139 80.095092"
   version="1.1"
   id="svg5"
   xml:space="preserve"
   inkscape:version="1.2.2 (b0a8486541, 2022-12-01)"
   sodipodi:docname="Reystation site.svg"
   xmlns:inkscape="http://www.inkscape.org/namespaces/inkscape"
   xmlns:sodipodi="http://sodipodi.sourceforge.net/DTD/sodipodi-0.dtd"
   xmlns="http://www.w3.org/2000/svg"
   xmlns:svg="http://www.w3.org/2000/svg"><sodipodi:namedview
     id="namedview7"
     pagecolor="#ffffff"
     bordercolor="#000000"
     borderopacity="0.25"
     inkscape:showpageshadow="2"
     inkscape:pageopacity="0.0"
     inkscape:pagecheckerboard="0"
     inkscape:deskcolor="#d1d1d1"
     inkscape:document-units="px"
     showgrid="false"
     inkscape:zoom="0.24583334"
     inkscape:cx="1338.3051"
     inkscape:cy="1368.8135"
     inkscape:window-width="1366"
     inkscape:window-height="707"
     inkscape:window-x="0"
     inkscape:window-y="0"
     inkscape:window-maximized="1"
     inkscape:current-layer="layer4"
     showguides="true"
     inkscape:lockguides="false"><sodipodi:guide
       position="-666.60531,1310.5025"
       orientation="1,0"
       id="guide5387"
       inkscape:locked="false" /><sodipodi:guide
       position="1005.5458,1512.1252"
       orientation="1,0"
       id="guide5495"
       inkscape:locked="false" /><sodipodi:guide
       position="-790.107,811.31417"
       orientation="1,0"
       id="guide5783"
       inkscape:locked="false" /><sodipodi:guide
       position="1128.8115,753.78687"
       orientation="1,0"
       id="guide5785"
       inkscape:locked="false" /></sodipodi:namedview><defs
     id="defs2" /><g
     inkscape:groupmode="layer"
     id="layer3"
     inkscape:label="My services"
     transform="translate(-790.46654,-1487.7035)"><path
       style="fill:#000000;stroke-width:0.156547"
       d="m 793.98923,1567.6342 c -0.85809,-0.2099 -1.75474,-0.7709 -2.39566,-1.499 -1.1797,-1.3402 -1.12665,-0.6328 -1.12665,-15.0264 0,-14.3946 -0.0532,-13.6861 1.12741,-15.0273 0.34884,-0.3963 0.99518,-0.9091 1.4363,-1.1395 0.76838,-0.4013 0.92199,-0.4213 3.65904,-0.4771 l 2.85698,-0.058 9.4e-4,-1.9027 c 4.7e-4,-1.0466 0.10215,-2.5743 0.22587,-3.395 0.92112,-6.1103 5.39073,-10.9832 11.48616,-12.5225 l 0.67637,-0.1708 -0.5981,-0.4394 c -1.82276,-1.3389 -4.00305,-4.1823 -4.91249,-6.4066 -0.47863,-1.1707 -0.52459,-1.2258 -1.23035,-1.4765 -3.11363,-1.1058 -4.15281,-5.0094 -1.97764,-7.4287 0.60945,-0.6778 1.54106,-1.2911 2.2835,-1.5032 0.13216,-0.038 0.46449,-0.6579 0.73852,-1.378 1.84371,-4.8453 6.20773,-8.5942 11.38842,-9.7833 1.72619,-0.3962 5.01352,-0.3951 6.73153,0 3.07001,0.71 5.42231,2.0107 7.67678,4.2449 1.78389,1.7679 2.80774,3.2866 3.67957,5.458 0.55306,1.3775 0.58435,1.4184 1.25788,1.6429 1.03357,0.3445 2.3954,1.7708 2.71347,2.8419 0.30647,1.032 0.31588,1.9168 0.0305,2.8651 -0.41971,1.3946 -1.70387,2.6911 -3.07131,3.1008 -0.5306,0.159 -0.61821,0.2736 -1.08928,1.4258 -0.75902,1.8564 -2.11538,3.7704 -3.84114,5.4202 -0.87985,0.8411 -1.41741,1.4628 -1.29814,1.5013 0.11197,0.036 0.62505,0.1829 1.14018,0.3262 2.34115,0.6512 4.60496,2.0364 6.49939,3.9769 3.01336,3.0867 4.37999,6.7346 4.3824,11.6978 l 9.4e-4,1.9027 2.85698,0.058 c 2.73705,0.056 2.89066,0.076 3.65904,0.4771 0.44112,0.2304 1.08746,0.7432 1.4363,1.1395 1.18056,1.3412 1.1274,0.6327 1.1274,15.0273 0,14.3946 0.0532,13.686 -1.12742,15.0272 -0.34884,0.3963 -0.99517,0.911 -1.4363,1.1437 l -0.80205,0.4231 -5.03528,0.049 -5.03527,0.049 -0.51859,-0.4633 c -0.69617,-0.6221 -0.73314,-1.5331 -0.0884,-2.1783 l 0.43019,-0.4305 4.86353,-0.078 4.86353,-0.078 0.37756,-0.4392 0.37757,-0.4392 v -12.5846 -12.5846 l -0.37782,-0.4392 -0.37781,-0.4393 h -26.64013 -26.64012 l -0.37782,0.4393 -0.37781,0.4392 v 12.5846 12.5846 l 0.37777,0.4392 0.37777,0.4392 15.23781,0.078 c 8.38079,0.043 15.36369,0.1396 15.51756,0.2147 0.33277,0.1622 0.7378,0.8954 0.7378,1.3356 0,0.1725 -0.0842,0.4982 -0.18702,0.724 -0.40668,0.8926 0.25585,0.858 -16.12524,0.8406 -8.29149,-0.01 -15.28678,-0.068 -15.54508,-0.1308 z m 14.16752,-35.7145 v -2.5168 l 0.4576,-0.4576 c 0.89049,-0.8905 2.32551,-0.4356 2.57594,0.8166 0.0536,0.2678 0.0974,1.4292 0.0974,2.5808 v 2.0938 h 9.70592 9.70593 v -2.0938 c 0,-1.1516 0.0438,-2.313 0.0974,-2.5808 0.25044,-1.2522 1.68546,-1.7071 2.57595,-0.8166 l 0.4576,0.4576 v 2.5168 2.5168 h 2.75991 2.7599 l -0.0829,-2.5439 c -0.0935,-2.8699 -0.28477,-3.7807 -1.19187,-5.6748 -1.54547,-3.2271 -4.26727,-5.512 -7.77626,-6.528 -1.22589,-0.355 -1.35779,-0.3601 -9.3057,-0.3601 -7.9479,0 -8.0798,0.01 -9.30569,0.3601 -3.509,1.016 -6.23079,3.3009 -7.77627,6.528 -0.90709,1.8941 -1.09839,2.8049 -1.19186,5.6748 l -0.0829,2.5439 h 2.75991 2.75991 z m 15.46452,-16.0482 c 3.21658,-0.6644 6.29435,-2.7913 8.0779,-5.5821 0.59581,-0.9323 1.43976,-2.8827 1.60512,-3.7095 0.15703,-0.7852 0.71392,-1.2045 1.73881,-1.3095 0.74542,-0.076 0.97501,-0.175 1.33127,-0.5723 0.60594,-0.6758 0.5878,-1.4378 -0.0494,-2.075 l -0.47991,-0.4799 -1.35952,0.1392 c -0.74774,0.077 -2.2401,0.1395 -3.31636,0.1397 -2.3271,6e-4 -3.42388,-0.2503 -5.68746,-1.3011 -1.44366,-0.6701 -1.56968,-0.7016 -2.03511,-0.5083 -1.63425,0.6788 -4.28583,1.4715 -5.86834,1.7545 -2.36718,0.4232 -6.43471,0.4606 -8.67624,0.08 -2.23765,-0.3803 -2.71219,-0.3514 -3.26208,0.1985 -0.61428,0.6143 -0.6245,1.3873 -0.0271,2.0504 0.40615,0.4508 0.79477,0.5738 1.94041,0.6139 0.47509,0.017 0.92875,0.7033 1.40228,2.1224 0.6644,1.9912 1.53426,3.3783 3.10104,4.9451 1.92117,1.9212 3.77906,2.9482 6.354,3.5125 1.30819,0.2867 3.77613,0.2781 5.21069,-0.018 z m -4.97586,-3.0206 c -1.80162,-0.5825 -2.50476,-1.1588 -2.50476,-2.053 0,-0.5011 0.31698,-1.0306 0.78109,-1.3048 0.59051,-0.3488 0.81771,-0.3317 2.02448,0.1526 0.74423,0.2987 1.31204,0.4133 2.04739,0.4133 0.73536,0 1.30317,-0.1146 2.0474,-0.4133 1.33837,-0.5371 1.63263,-0.5217 2.2733,0.119 1.20725,1.2072 0.41502,2.3775 -2.11831,3.1291 -1.15312,0.3421 -3.42591,0.3207 -4.55059,-0.043 z m -3.52307,-6.5011 c -1.0453,-1.0453 -0.34324,-2.6839 1.13203,-2.6421 0.7753,0.022 1.45175,0.743 1.45175,1.5473 0,1.2661 -1.69446,1.9841 -2.58378,1.0948 z m 9.70593,0 c -1.04531,-1.0453 -0.34325,-2.6839 1.13202,-2.6421 0.68992,0.02 1.45176,0.7471 1.45176,1.3865 0,0.5189 -0.3944,1.2691 -0.77407,1.4723 -0.54883,0.2937 -1.40138,0.1916 -1.80971,-0.2167 z m -7.78044,-7.0681 c 1.67045,-0.2882 3.58138,-0.8572 4.96738,-1.479 1.5189,-0.6815 2.60349,-0.6562 3.94133,0.092 1.77178,0.9909 3.0356,1.3468 5.09523,1.4351 2.14717,0.092 2.11963,0.1208 1.35133,-1.4123 -3.28981,-6.5645 -11.03867,-9.0312 -17.51939,-5.577 -1.21776,0.649 -2.84362,2.018 -3.78609,3.1879 -0.76674,0.9517 -2.00159,3.1598 -2.00159,3.5791 0,0.1774 0.24782,0.2606 0.97842,0.3283 0.53813,0.05 1.18976,0.1201 1.44806,0.1562 0.83398,0.1163 4.12371,-0.068 5.52532,-0.3102 z m 13.70759,68.3514 c -0.87533,-0.3723 -1.12273,-1.696 -0.46081,-2.4655 0.31373,-0.3647 0.50192,-0.4392 1.10939,-0.4392 0.93574,0 1.4872,0.5514 1.4872,1.4872 0,1.0943 -1.13085,1.8449 -2.13578,1.4175 z m -25.92367,-11.9418 c -3.64628,-3.7317 -3.94791,-4.1408 -3.70262,-5.0208 0.11861,-0.4256 6.63526,-7.3301 7.2072,-7.6362 0.96822,-0.5182 2.16862,0.273 2.16862,1.4293 0,0.7168 0.003,0.7135 -4.27114,5.0918 -1.39627,1.4304 -1.51541,1.598 -1.27675,1.7961 0.14477,0.1201 1.45227,1.4661 2.90555,2.9909 2.54764,2.6731 2.64234,2.7957 2.64234,3.4212 0,0.8867 -0.65269,1.5624 -1.51429,1.5674 -0.57667,0 -0.73233,-0.1328 -4.15891,-3.6397 z m 10.70491,3.2395 c -0.51304,-0.4317 -0.64425,-0.8548 -0.47071,-1.5181 0.15882,-0.6069 8.36343,-13.5724 8.91762,-14.0921 0.63845,-0.5988 1.41608,-0.5885 2.03159,0.027 0.90954,0.9096 0.9173,0.8925 -3.80499,8.3696 -2.34442,3.7121 -4.45239,6.943 -4.68437,7.1798 -0.55722,0.5687 -1.33763,0.582 -1.98914,0.034 z m 16.40321,-0.061 c -0.35893,-0.3589 -0.4576,-0.5979 -0.4576,-1.1081 0,-0.6303 0.0893,-0.7438 2.87276,-3.6521 l 2.87276,-3.0017 -2.87276,-3.0005 c -2.78423,-2.908 -2.87276,-3.0206 -2.87276,-3.6514 0,-0.8887 0.65158,-1.5643 1.5143,-1.5701 0.57687,0 0.73115,0.1311 4.15953,3.6397 3.64948,3.7349 3.94775,4.1397 3.7014,5.0235 -0.11062,0.3968 -6.01482,6.7026 -7.00504,7.4815 -0.5748,0.4522 -1.36618,0.3856 -1.91259,-0.1608 z"
       id="path586" /></g></svg>
