<?xml version="1.0" encoding="UTF-8" standalone="no"?>
<!-- Created with Inkscape (http://www.inkscape.org/) -->

<svg
   width="81.169846"
   height="78.610962"
   viewBox="0 0 81.169847 78.610961"
   version="1.1"
   id="svg5"
   xml:space="preserve"
   inkscape:version="1.2.2 (b0a8486541, 2022-12-01)"
   sodipodi:docname="Reystation site.svg"
   xmlns:inkscape="http://www.inkscape.org/namespaces/inkscape"
   xmlns:sodipodi="http://sodipodi.sourceforge.net/DTD/sodipodi-0.dtd"
   xmlns="http://www.w3.org/2000/svg"
   xmlns:svg="http://www.w3.org/2000/svg"><sodipodi:namedview
     id="namedview7"
     pagecolor="#ffffff"
     bordercolor="#000000"
     borderopacity="0.25"
     inkscape:showpageshadow="2"
     inkscape:pageopacity="0.0"
     inkscape:pagecheckerboard="0"
     inkscape:deskcolor="#d1d1d1"
     inkscape:document-units="px"
     showgrid="false"
     inkscape:zoom="0.24583334"
     inkscape:cx="1338.3051"
     inkscape:cy="1368.8135"
     inkscape:window-width="1366"
     inkscape:window-height="707"
     inkscape:window-x="0"
     inkscape:window-y="0"
     inkscape:window-maximized="1"
     inkscape:current-layer="layer4"
     showguides="true"
     inkscape:lockguides="false"><sodipodi:guide
       position="-49.358586,1295.7664"
       orientation="1,0"
       id="guide5387"
       inkscape:locked="false" /><sodipodi:guide
       position="1622.7925,1497.3891"
       orientation="1,0"
       id="guide5495"
       inkscape:locked="false" /><sodipodi:guide
       position="-172.86027,796.57809"
       orientation="1,0"
       id="guide5783"
       inkscape:locked="false" /><sodipodi:guide
       position="1746.0582,739.05078"
       orientation="1,0"
       id="guide5785"
       inkscape:locked="false" /></sodipodi:namedview><defs
     id="defs2" /><g
     inkscape:groupmode="layer"
     id="layer3"
     inkscape:label="My services"
     transform="translate(-173.21982,-1474.4515)"><path
       style="fill:#000000;stroke-width:0.158535"
       d="m 209.29067,1552.5652 -0.55908,-0.5591 v -4.8511 -4.8512 h -1.75608 c -1.72954,0 -1.76308,-0.01 -2.21948,-0.4634 l -0.46341,-0.4634 v -3.3391 -3.339 l -15.07383,-0.042 -15.07382,-0.042 -0.46257,-0.5178 -0.46257,-0.5177 v -3.9687 c 0,-5.2702 -0.0251,-5.2213 2.68292,-5.2213 h 1.59402 l 0.0414,-20.7025 0.0414,-20.7025 0.44481,-0.3826 c 0.4371,-0.376 0.49806,-0.3826 3.51592,-0.3826 h 3.07111 l 0.0511,-3.2971 c 0.056,-3.6124 0.14669,-3.9873 1.04751,-4.3298 0.27609,-0.1049 3.28593,-0.1411 8.59221,-0.1032 7.6689,0.055 8.23499,0.078 9.27701,0.3832 3.38997,0.9926 4.47436,1.7352 9.30155,6.3699 l 0.89921,0.8633 2.60985,-2.4401 c 2.90664,-2.7175 4.31503,-3.677 6.47669,-4.4123 2.14037,-0.728 3.18493,-0.8022 11.28172,-0.8015 7.1765,5e-4 7.50015,0.013 7.99453,0.3147 0.28338,0.1728 0.52956,0.333 0.54706,0.3561 0.0175,0.023 0.071,1.6115 0.1189,3.5297 l 0.0871,3.4878 3.20635,0.079 c 3.07248,0.076 3.22141,0.094 3.56703,0.4403 l 0.36068,0.3611 0.0414,20.6844 0.0414,20.6844 h 1.59402 c 2.70805,0 2.68292,-0.049 2.68292,5.2213 v 3.9687 l -0.4626,0.5177 -0.4626,0.5178 h -4.6069 -4.60691 l -0.43597,-0.436 c -0.64867,-0.6487 -0.61566,-1.5761 0.0782,-2.1961 l 0.51413,-0.4594 h 3.406 3.40599 v -1.9816 -1.9817 H 213.8047 176.39052 v 1.9803 1.9804 l 27.67803,0.041 27.67803,0.041 0.3826,0.4448 c 0.41914,0.4873 0.48894,1.1301 0.1932,1.7791 -0.36752,0.8067 -0.72084,0.8675 -5.03437,0.8675 h -3.97124 v 3.3415 3.3414 l -0.46341,0.4634 c -0.4564,0.4564 -0.48993,0.4634 -2.21948,0.4634 h -1.75608 v 4.8512 4.8511 l -0.55908,0.5591 c -0.49599,0.496 -0.62568,0.5485 -1.14937,0.4653 -0.37797,-0.06 -0.74711,-0.2678 -1.02627,-0.5775 l -0.43597,-0.4836 v -4.8328 -4.8328 h -1.89593 -1.89592 l -0.0461,4.9112 -0.0461,4.9112 -0.40486,0.4046 c -0.22267,0.2226 -0.66665,0.4471 -0.98663,0.4991 -0.51457,0.083 -0.64637,0.03 -1.14085,-0.4647 z m 10.85541,-15.6516 v -2.2195 h -6.34138 -6.34139 v 2.2195 2.2195 h 6.34139 6.34138 z m -35.51176,-32.024 v -19.4997 h -1.98168 -1.98168 v 19.4997 19.4998 h 1.98168 1.98168 z m 23.60977,19.2477 c -0.39298,-0.4736 -2.17543,-1.6556 -3.19042,-2.1158 -1.95752,-0.8876 -2.75081,-0.9613 -10.34571,-0.9613 h -6.90294 v 1.5589 c 0,0.8574 0.0476,1.6065 0.10569,1.6646 0.0581,0.058 4.704,0.1057 10.32416,0.1057 9.32316,0 10.20014,-0.022 10.00922,-0.2521 z m 31.48102,-1.4125 v -1.5854 l -6.81699,-0.044 c -5.72131,-0.037 -7.01857,0 -8.07117,0.2082 -1.5177,0.3047 -2.95976,0.938 -4.2785,1.879 -1.85465,1.3235 -2.68867,1.2138 8.88116,1.1679 l 10.2855,-0.041 z m 7.21332,-17.8352 v -19.4997 h -2.06095 -2.06095 v 19.394 c 0,10.6668 0.0476,19.4417 0.10569,19.4998 0.0581,0.058 0.98556,0.1057 2.06095,0.1057 h 1.95526 z m -34.71908,-0.8527 v -19.0841 l -2.55573,-2.4102 c -2.96467,-2.7958 -3.47305,-3.1941 -4.97467,-3.8974 -2.02123,-0.9466 -2.789,-1.0235 -10.2188,-1.0235 h -6.66513 v 20.1229 20.123 l 7.57002,0.064 c 7.02151,0.059 7.65045,0.087 8.67978,0.3854 2.53787,0.7347 4.14488,1.6295 6.57918,3.6633 0.74115,0.6192 1.40105,1.1291 1.46645,1.1332 0.0654,0 0.1189,-8.5804 0.1189,-19.0767 z m -17.63299,8.2153 c -0.8529,-0.4629 -1.03527,-1.6311 -0.37461,-2.3995 l 0.38242,-0.4448 4.87947,-0.046 c 3.49093,-0.033 5.00833,0.01 5.3323,0.1413 1.1284,0.4674 1.18978,2.2059 0.0978,2.7706 -0.65179,0.337 -9.69146,0.3185 -10.3174,-0.021 z m 0.43198,-7.9685 c -1.23869,-0.4198 -1.59991,-1.7026 -0.7256,-2.577 l 0.46341,-0.4634 h 5.01823 5.01823 l 0.46341,0.4634 c 0.63257,0.6326 0.63295,1.4027 9.5e-4,2.1103 l -0.46238,0.5178 -4.72963,0.028 c -2.60129,0.015 -4.8723,-0.02 -5.04669,-0.079 z m -0.7256,-8.5769 c -0.69467,-0.6947 -0.58614,-1.8674 0.22165,-2.3951 0.38658,-0.2526 3.91219,-0.4195 5.09929,-0.2415 1.45423,0.2181 2.02445,1.657 1.04484,2.6366 l -0.46341,0.4634 h -2.71948 -2.71948 z m 0.38586,-7.779 c -0.73476,-0.2966 -1.09464,-1.4662 -0.68603,-2.2296 0.3899,-0.7286 0.79817,-0.7839 5.78181,-0.7839 5.0925,0 5.38014,0.043 5.75565,0.8675 0.23949,0.5256 0.23949,0.91 0,1.4356 -0.3767,0.8268 -0.65754,0.8684 -5.78741,0.8575 -2.59835,-0.01 -4.87716,-0.072 -5.06402,-0.1471 z m 22.42804,33.9504 c 2.66771,-2.1625 3.89497,-2.8502 6.3094,-3.5359 1.19739,-0.34 1.55688,-0.3569 8.81891,-0.4146 l 7.57064,-0.06 -0.0402,-20.0833 -0.0402,-20.0834 -6.57919,-0.044 c -7.27642,-0.048 -8.20547,0.036 -10.10334,0.9143 -1.51442,0.7011 -2.24852,1.2703 -5.05696,3.9211 l -2.59558,2.4499 v 19.0892 c 0,10.4991 0.0412,19.0893 0.0916,19.0893 0.0504,0 0.78163,-0.5593 1.62498,-1.2429 z m 5.63941,-9.9179 c -0.59516,-0.5952 -0.68126,-1.1041 -0.30869,-1.8246 0.4051,-0.7834 0.72414,-0.8244 6.01546,-0.7742 l 4.87947,0.046 0.38242,0.4448 c 0.41005,0.4769 0.50932,1.3206 0.21918,1.8627 -0.39087,0.7304 -0.7917,0.7839 -5.86906,0.7839 h -4.77976 z m 0.61577,-7.6575 c -0.19321,-0.037 -0.53955,-0.2917 -0.76964,-0.5651 -0.34879,-0.4145 -0.40404,-0.6039 -0.33228,-1.1388 0.0568,-0.4238 0.22697,-0.7629 0.50104,-0.9986 0.39813,-0.3425 0.53419,-0.357 3.35123,-0.357 h 2.93624 l 0.46341,0.4634 c 0.9018,0.9018 0.44112,2.3551 -0.82694,2.6087 -0.53738,0.1075 -4.75433,0.098 -5.32306,-0.013 z m -0.60088,-8.4895 c -0.27615,-0.2376 -0.44419,-0.5748 -0.5023,-1.008 -0.0758,-0.5654 -0.0242,-0.7218 0.3929,-1.1888 l 0.48022,-0.5377 4.41257,-0.05 c 2.42692,-0.028 4.70948,-0.01 5.07235,0.047 1.426,0.2111 1.98665,1.6616 1.01704,2.6312 l -0.46341,0.4634 h -4.99719 c -4.95475,0 -5.00073,0 -5.41218,-0.3569 z m 0.25621,-7.9461 c -0.93599,-0.5274 -1.05933,-1.6257 -0.2711,-2.4139 l 0.53902,-0.539 h 4.77976 c 5.07736,0 5.47819,0.053 5.86906,0.7839 0.29015,0.5421 0.19087,1.3857 -0.21919,1.8627 l -0.38243,0.4448 -4.96812,0.038 c -3.92642,0.03 -5.04755,-0.01 -5.347,-0.176 z m 14.32994,46.6771 c -0.58734,-0.2404 -0.944,-0.7937 -0.944,-1.4644 0,-0.519 0.0957,-0.7232 0.51413,-1.0971 0.60476,-0.5403 1.17268,-0.5852 1.88771,-0.1493 0.97241,0.593 0.84348,2.2014 -0.21178,2.6423 -0.5857,0.2448 -0.78817,0.2559 -1.24606,0.069 z"
       id="path584" /></g></svg>
