<?xml version="1.0" encoding="UTF-8" standalone="no"?>
<!-- Created with Inkscape (http://www.inkscape.org/) -->

<svg
   width="74.241089"
   height="62.132812"
   viewBox="0 0 74.24109 62.132812"
   version="1.1"
   id="svg5"
   xml:space="preserve"
   inkscape:version="1.2.2 (b0a8486541, 2022-12-01)"
   sodipodi:docname="Reystation site.svg"
   xmlns:inkscape="http://www.inkscape.org/namespaces/inkscape"
   xmlns:sodipodi="http://sodipodi.sourceforge.net/DTD/sodipodi-0.dtd"
   xmlns="http://www.w3.org/2000/svg"
   xmlns:svg="http://www.w3.org/2000/svg"><sodipodi:namedview
     id="namedview7"
     pagecolor="#ffffff"
     bordercolor="#000000"
     borderopacity="0.25"
     inkscape:showpageshadow="2"
     inkscape:pageopacity="0.0"
     inkscape:pagecheckerboard="0"
     inkscape:deskcolor="#d1d1d1"
     inkscape:document-units="px"
     showgrid="false"
     inkscape:zoom="0.24583334"
     inkscape:cx="1338.3051"
     inkscape:cy="1368.8135"
     inkscape:window-width="1366"
     inkscape:window-height="707"
     inkscape:window-x="0"
     inkscape:window-y="0"
     inkscape:window-maximized="1"
     inkscape:current-layer="layer4"
     showguides="true"
     inkscape:lockguides="false"><sodipodi:guide
       position="-1218.8999,1154.2741"
       orientation="1,0"
       id="guide5387"
       inkscape:locked="false" /><sodipodi:guide
       position="453.25121,1355.8968"
       orientation="1,0"
       id="guide5495"
       inkscape:locked="false" /><sodipodi:guide
       position="-1342.4016,655.08577"
       orientation="1,0"
       id="guide5783"
       inkscape:locked="false" /><sodipodi:guide
       position="576.51691,597.55847"
       orientation="1,0"
       id="guide5785"
       inkscape:locked="false" /></sodipodi:namedview><defs
     id="defs2" /><g
     inkscape:groupmode="layer"
     id="layer3"
     inkscape:label="My services"
     transform="translate(-1342.7611,-1349.4374)"><path
       style="fill:#000000;stroke-width:0.145176"
       d="m 1356.3191,1411.0769 c -7.0559,-1.866 -11.6243,-4.4692 -13.0857,-7.4564 l -0.4723,-0.9654 v -21.0506 -21.0506 l 0.4707,-0.9938 c 2.1374,-4.5129 11.2743,-8.063 24.4996,-9.5191 4.1724,-0.4593 7.0695,-0.6036 12.1223,-0.6036 5.0511,0 7.9471,0.1442 12.1222,0.6034 13.2829,1.4609 22.3519,4.9847 24.4996,9.5193 l 0.4707,0.9938 0.038,20.6801 c 0.042,22.6358 0.084,21.4125 -0.7892,22.9025 -0.8063,1.3759 -2.8923,3.0606 -5.2618,4.2497 -3.0136,1.5123 -8.9683,3.3218 -10.4002,3.1604 -0.8051,-0.091 -1.4832,-0.5854 -1.8204,-1.328 -0.2533,-0.5576 -0.2705,-1.1129 -0.2735,-8.824 0,-7.7088 -0.019,-8.234 -0.2572,-8.3076 -0.4283,-0.1324 -3.8585,-0.6668 -4.2803,-0.6668 -0.3333,-10e-5 -0.458,0.1219 -0.7793,0.7621 -1.4252,2.8394 -3.7869,5.1838 -6.6794,6.6305 -7.2417,3.6222 -16.2163,0.6256 -19.8585,-6.6305 -0.3213,-0.6402 -0.446,-0.7622 -0.7793,-0.7621 -0.4218,0 -3.852,0.5344 -4.2803,0.6668 -0.238,0.074 -0.254,0.5974 -0.254,8.3131 v 8.2345 l -0.3267,0.6472 c -0.4115,0.8152 -1.2181,1.3005 -2.1413,1.2881 -0.3593,0 -1.4771,-0.2267 -2.484,-0.493 z m 2.4482,-20.495 -0.037,-18.5335 -2.1326,-0.5461 c -4.7082,-1.2058 -8.391,-2.7555 -10.6983,-4.5018 l -0.7431,-0.5625 v 17.7361 c 0,20.382 -0.1613,18.2617 1.508,19.8232 1.95,1.8242 5.6684,3.4969 10.6868,4.8074 0.5989,0.1564 1.1707,0.2902 1.2709,0.2975 0.1452,0.011 0.1745,-3.7351 0.1451,-18.5203 z m 44.829,17.875 c 3.326,-0.9253 6.2411,-2.1306 8.0314,-3.3208 1.1524,-0.7661 2.4145,-2.0529 2.7121,-2.7652 0.1806,-0.4323 0.211,-3.0541 0.211,-18.2189 v -17.714 l -0.7431,0.5625 c -2.3269,1.7611 -5.9591,3.2881 -10.7253,4.5087 l -2.1056,0.5392 -0.037,18.5452 -0.037,18.5451 0.4724,-0.098 c 0.2598,-0.054 1.2592,-0.3165 2.2208,-0.5841 z m -20.8666,-9.8674 c 4.5528,-1.0825 8.2894,-4.9424 9.234,-9.5386 0.3479,-1.6929 0.3016,-3.8602 -0.1178,-5.5134 -1.0916,-4.3035 -4.2777,-7.6144 -8.5806,-8.9169 -1.1477,-0.3475 -1.5537,-0.3963 -3.3391,-0.4017 -1.6836,-0.01 -2.2317,0.05 -3.1938,0.3218 -2.4903,0.7034 -4.765,2.1386 -6.3329,3.9958 -0.9625,1.14 -2.1628,3.4139 -2.5392,4.8101 -0.364,1.3504 -0.4309,4.1412 -0.1344,5.607 1.0616,5.2482 5.272,9.1315 10.7486,9.9136 0.7786,0.1112 3.316,-0.054 4.2552,-0.2777 z m -8.3485,-4.7922 c -0.2844,-0.1196 -0.4992,-0.3529 -0.6055,-0.6577 -0.1127,-0.3235 -0.1646,-2.412 -0.1646,-6.6254 0,-6.8181 0.016,-6.9509 0.8722,-7.3056 0.4665,-0.1932 0.5536,-0.1552 6.9946,3.06 3.5872,1.7906 6.6295,3.3732 6.7607,3.5169 0.2922,0.3201 0.3114,1.1482 0.034,1.4819 -0.2089,0.2518 -12.3994,6.4109 -13.0765,6.6069 -0.2234,0.065 -0.5525,0.034 -0.8153,-0.077 z m 5.9806,-5.1872 4.1389,-2.0679 -4.102,-2.0618 c -2.256,-1.134 -4.1509,-2.0653 -4.2108,-2.0696 -0.06,0 -0.1088,1.8541 -0.1088,4.1297 0,2.2756 0.032,4.1375 0.072,4.1375 0.039,0 1.9344,-0.9305 4.2108,-2.0679 z m -16.855,1.6318 c 0.9501,-0.1567 1.756,-0.3134 1.7908,-0.3482 0.035,-0.035 -0.016,-0.557 -0.1137,-1.1605 -0.2441,-1.5131 -0.1063,-4.489 0.2741,-5.9202 0.7237,-2.7229 1.9558,-4.8393 4.003,-6.8762 2.8428,-2.8283 6.3566,-4.2731 10.3927,-4.2731 4.0526,0 7.547,1.4362 10.3926,4.2713 2.0485,2.041 3.2797,4.1563 4.003,6.878 0.3804,1.4312 0.5182,4.4071 0.2741,5.9202 -0.097,0.6035 -0.1459,1.1284 -0.1078,1.1664 0.06,0.06 1.2603,0.2653 3.4036,0.5816 l 0.617,0.091 v -9.5059 -9.506 l 0.3374,-0.6379 c 0.1855,-0.3509 0.5421,-0.7576 0.7924,-0.9038 0.2503,-0.1462 1.5521,-0.5505 2.8929,-0.8986 5.133,-1.3324 8.573,-2.8748 10.5627,-4.7361 1.4714,-1.3764 1.8268,-2.4347 1.2466,-3.7125 -1.5593,-3.4346 -9.9318,-6.6312 -20.9887,-8.0135 -10.4585,-1.3074 -22.5635,-1.0041 -31.9358,0.8001 -8.452,1.627 -14.4394,4.2988 -15.8137,7.0567 -0.6519,1.308 -0.4485,2.2024 0.8011,3.5237 1.8993,2.0083 5.8661,3.8184 11.4486,5.2242 1.1499,0.2896 2.2696,0.6539 2.4882,0.8096 0.2187,0.1557 0.5338,0.5645 0.7004,0.9086 0.2974,0.6145 0.3028,0.7924 0.3028,10.0887 0,8.917 0.015,9.4631 0.254,9.4602 0.1398,0 1.0315,-0.1312 1.9817,-0.2879 z m -7.7438,-25.5144 c -0.6527,-0.3317 -0.855,-0.9125 -0.5445,-1.5636 0.1956,-0.41 0.381,-0.5252 1.3611,-0.8453 2.3329,-0.762 6.2661,-1.6921 7.1559,-1.6921 0.631,0 1.165,0.5083 1.165,1.1089 0,1.0036 -0.2712,1.1879 -2.3228,1.5785 -1.3969,0.266 -3.4515,0.7931 -5.125,1.3148 -0.6229,0.1942 -1.1456,0.353 -1.1614,0.3529 -0.016,-10e-5 -0.2536,-0.1145 -0.5283,-0.2541 z m 45.9397,-0.2618 c -1.2927,-0.4041 -3.8713,-1.0312 -5.9922,-1.4574 -1.3411,-0.2694 -1.1384,-2.3818 0.2285,-2.3818 1.075,0 6.7703,1.4139 7.9498,1.9736 0.9513,0.4515 0.937,1.7782 -0.023,2.1796 -0.2661,0.1111 -0.5023,0.1983 -0.5248,0.1937 -0.023,0 -0.7596,-0.2331 -1.6379,-0.5077 z m -45.9483,-4.8981 c -0.8131,-0.4113 -0.8793,-1.4636 -0.1274,-2.025 0.7762,-0.5795 8.4019,-2.2124 11.1694,-2.3917 1.2298,-0.08 1.2498,-0.076 1.5622,0.3216 0.5007,0.6366 0.3724,1.4742 -0.2792,1.823 -0.1643,0.088 -1.1917,0.2851 -2.2832,0.4383 -2.6038,0.3653 -4.5418,0.7527 -7.2547,1.4504 -2.5398,0.6531 -2.315,0.6222 -2.7871,0.3834 z m 45.8757,-0.2628 c -2.0001,-0.5549 -5.1757,-1.2112 -7.2588,-1.5002 -2.5758,-0.3573 -2.6235,-0.3691 -2.9923,-0.7379 -0.4365,-0.4365 -0.4484,-1.0627 -0.03,-1.5942 0.3124,-0.3971 0.3324,-0.4013 1.5622,-0.3216 2.6446,0.1714 10.2552,1.7778 11.1263,2.3486 0.8016,0.5252 0.703,1.7839 -0.1655,2.1141 -0.4819,0.1832 -0.4547,0.1869 -2.2416,-0.3088 z"
       id="path590" /></g></svg>
