<?xml version="1.0" encoding="UTF-8" standalone="no"?>
<!-- Created with Inkscape (http://www.inkscape.org/) -->

<svg
   width="72.626389"
   height="80.065674"
   viewBox="0 0 72.626389 80.065673"
   version="1.1"
   id="svg5"
   xml:space="preserve"
   inkscape:version="1.2.2 (b0a8486541, 2022-12-01)"
   sodipodi:docname="Reystation site.svg"
   xmlns:inkscape="http://www.inkscape.org/namespaces/inkscape"
   xmlns:sodipodi="http://sodipodi.sourceforge.net/DTD/sodipodi-0.dtd"
   xmlns="http://www.w3.org/2000/svg"
   xmlns:svg="http://www.w3.org/2000/svg"><sodipodi:namedview
     id="namedview7"
     pagecolor="#ffffff"
     bordercolor="#000000"
     borderopacity="0.25"
     inkscape:showpageshadow="2"
     inkscape:pageopacity="0.0"
     inkscape:pagecheckerboard="0"
     inkscape:deskcolor="#d1d1d1"
     inkscape:document-units="px"
     showgrid="false"
     inkscape:zoom="0.24583334"
     inkscape:cx="1338.3051"
     inkscape:cy="1368.8135"
     inkscape:window-width="1366"
     inkscape:window-height="707"
     inkscape:window-x="0"
     inkscape:window-y="0"
     inkscape:window-maximized="1"
     inkscape:current-layer="layer4"
     showguides="true"
     inkscape:lockguides="false"><sodipodi:guide
       position="-53.628804,1145.1011"
       orientation="1,0"
       id="guide5387"
       inkscape:locked="false" /><sodipodi:guide
       position="1618.5223,1346.7238"
       orientation="1,0"
       id="guide5495"
       inkscape:locked="false" /><sodipodi:guide
       position="-177.13049,645.9128"
       orientation="1,0"
       id="guide5783"
       inkscape:locked="false" /><sodipodi:guide
       position="1741.788,588.3855"
       orientation="1,0"
       id="guide5785"
       inkscape:locked="false" /></sodipodi:namedview><defs
     id="defs2" /><g
     inkscape:groupmode="layer"
     id="layer3"
     inkscape:label="My services"
     transform="translate(-177.49003,-1322.3316)"><path
       style="fill:#000000;stroke-width:0.156547"
       d="m 192.25709,1402.2873 c -0.8728,-0.3545 -1.12304,-1.6889 -0.46115,-2.459 l 0.37748,-0.4393 2.81139,-0.049 2.8114,-0.049 0.0761,-1.047 c 0.10383,-1.4292 0.61401,-2.5419 1.55225,-3.3854 1.12805,-1.0143 1.78947,-1.184 4.61462,-1.184 1.67756,0 2.42363,-0.055 2.50442,-0.1861 0.0633,-0.1024 0.51469,-1.8636 1.00312,-3.9137 l 0.88806,-3.7275 h -12.22613 c -7.60801,-7e-4 -12.6105,-0.062 -13.24369,-0.1622 -2.81244,-0.4451 -4.91426,-2.5776 -5.31646,-5.394 -0.20818,-1.4578 -0.21266,-40.627 -0.005,-42.064 0.31409,-2.1716 1.61022,-3.9456 3.55617,-4.8674 l 1.06064,-0.5024 22.00771,-0.041 22.0077,-0.041 2.76297,-4.1335 c 1.83425,-2.7441 2.98759,-4.3158 3.43119,-4.6758 3.60287,-2.9238 8.7039,-1.7961 10.65078,2.3547 0.42358,0.903 0.50505,1.2758 0.55622,2.5452 0.0496,1.229 0.002,1.6502 -0.27632,2.4265 -0.18495,0.5166 -0.37399,1.0531 -0.42008,1.1923 -0.0712,0.2152 0.10191,0.2639 1.15423,0.3248 3.05612,0.1769 5.43241,2.4152 5.83233,5.4937 0.20306,1.5631 0.19723,40.5633 -0.006,41.9884 -0.4022,2.8164 -2.50403,4.9489 -5.31646,5.394 -0.6332,0.1002 -5.63569,0.1615 -13.24369,0.1622 h -12.22614 l 0.88806,3.7275 c 0.48843,2.0501 0.93984,3.8112 1.00313,3.9136 0.0808,0.1308 0.82685,0.1862 2.50441,0.1862 2.82516,0 3.48657,0.1697 4.61462,1.1839 0.93824,0.8436 1.44843,1.9563 1.55226,3.3855 l 0.0761,1.047 2.81139,0.049 2.8114,0.049 0.37747,0.4392 c 0.51208,0.5959 0.51194,1.5004 -3.1e-4,2.0959 l -0.37781,0.4392 -21.42137,0.03 c -11.87351,0.017 -21.57091,-0.031 -21.75686,-0.1062 z m 34.38215,-3.6419 c -0.003,-0.8855 -0.27849,-1.3904 -0.93915,-1.7218 -0.50454,-0.253 -1.40249,-0.2737 -11.8954,-0.2737 -10.49291,0 -11.39085,0.021 -11.8954,0.2737 -0.66066,0.3314 -0.93608,0.8363 -0.93915,1.7218 l -0.002,0.6653 h 12.83686 12.83686 l -0.002,-0.6653 z m -8.92087,-5.2131 c 0,-0.1335 -0.38746,-1.8685 -0.86101,-3.8555 -0.47356,-1.9871 -0.86101,-3.639 -0.86101,-3.671 0,-0.032 -0.98625,-0.058 -2.19166,-0.058 -1.20541,0 -2.19166,0.026 -2.19166,0.058 0,0.032 -0.38745,1.6839 -0.86101,3.671 -0.47355,1.987 -0.861,3.722 -0.861,3.8555 0,0.2128 0.48252,0.2427 3.91367,0.2427 3.43115,0 3.91368,-0.03 3.91368,-0.2427 z m 27.54586,-11.1852 c 0.44628,-0.2502 0.86975,-0.6691 1.17411,-1.1614 l 0.47605,-0.77 v -4.083 -4.0829 l -25.00405,-0.078 -25.00406,-0.078 -0.35656,-0.3566 c -0.2622,-0.2622 -0.35657,-0.5375 -0.35657,-1.0403 0,-0.8197 0.35078,-1.2731 1.15843,-1.4975 0.36465,-0.1013 9.22541,-0.1568 25.10234,-0.1574 l 24.53874,-9e-4 -0.004,-14.9894 c -0.002,-8.2441 -0.0659,-15.2571 -0.14187,-15.5844 -0.17962,-0.7738 -0.70644,-1.5307 -1.39358,-2.0021 -0.51377,-0.3525 -0.70485,-0.3797 -2.91024,-0.4149 l -2.36036,-0.038 -7.04462,8.628 c -6.2757,7.6863 -7.04012,8.6815 -7.00344,9.1174 0.24204,2.8764 0.21914,4.0281 -0.10104,5.0822 -0.73122,2.4074 -2.57597,4.2622 -4.94964,4.9767 -0.77887,0.2344 -1.54084,0.2848 -4.46159,0.2946 -4.28195,0.014 -4.40832,0.047 -6.71554,1.7248 -1.09108,0.7935 -2.19303,0.3376 -2.59014,-1.0715 -0.39567,-1.4039 -0.69359,-3.0964 -0.87848,-4.9905 -0.71871,-7.3628 2.89428,-12.2981 9.45116,-12.9103 l 1.06728,-0.1 3.31603,-4.9364 c 1.82382,-2.715 3.44672,-5.1357 3.60644,-5.3791 l 0.29041,-0.4427 -20.73321,0.041 -20.73321,0.041 -0.62429,0.4326 c -0.34337,0.238 -0.79523,0.7311 -1.00415,1.0959 l -0.37985,0.6631 -0.0428,15.3808 -0.0428,15.3807 h 2.15623 c 2.35182,9e-4 3.12581,0.1398 3.58082,0.6426 0.43572,0.4815 0.40408,1.5892 -0.0586,2.0526 -0.33488,0.3353 -0.51181,0.3612 -2.9744,0.4348 l -2.61834,0.078 v 4.0703 4.0702 l 0.42912,0.73 c 0.42821,0.7284 1.14989,1.2958 1.96042,1.5414 0.23557,0.071 14.16531,0.1178 30.95498,0.1033 l 30.52668,-0.026 z m -54.66764,-10.3446 c -0.45562,-0.2654 -0.7823,-1.0627 -0.67336,-1.6435 0.20701,-1.1034 1.65348,-1.5493 2.5432,-0.784 0.36472,0.3137 0.43923,0.5019 0.43923,1.1094 0,0.6074 -0.0745,0.7956 -0.43923,1.1093 -0.4694,0.4038 -1.36361,0.5036 -1.86984,0.2088 z m 20.10787,-10.2992 c 1.34773,-0.5777 2.31494,-0.6969 5.83981,-0.7195 4.02922,-0.026 4.33221,-0.1035 5.5329,-1.4173 0.87827,-0.9609 1.20751,-1.8768 1.18078,-3.2845 -0.0366,-1.9275 -0.0567,-1.9543 -3.20061,-4.2659 -3.15463,-2.3194 -3.12481,-2.3087 -5.12923,-1.8362 -1.4963,0.3527 -2.55914,0.9252 -3.4327,1.8488 -1.25866,1.3309 -1.792,2.6918 -2.00436,5.1143 -0.11856,1.3526 0.22463,4.853 0.47581,4.853 0.0301,0 0.36203,-0.1317 0.7376,-0.2927 z m 14.7773,-12.6224 c 0.77097,-0.9471 1.49305,-1.8408 1.60462,-1.9859 0.17992,-0.2339 -0.0344,-0.4419 -1.8957,-1.8394 -1.1542,-0.8666 -2.16954,-1.5756 -2.25631,-1.5756 -0.15006,0 -2.82278,3.8884 -2.90627,4.2282 -0.0498,0.2027 3.84112,3.1512 3.96289,3.003 0.0489,-0.06 0.7198,-0.8832 1.49077,-1.8303 z m 9.13727,-11.1376 c 2.87093,-3.4995 5.39272,-6.6721 5.60399,-7.0501 0.45631,-0.8164 0.52653,-2.1665 0.1579,-3.0358 -0.88498,-2.0871 -3.41623,-2.9388 -5.35587,-1.802 -0.61375,0.3596 -1.26201,1.2504 -5.47904,7.5289 -2.63061,3.9165 -4.80056,7.1857 -4.82211,7.2648 -0.0423,0.1553 4.23605,3.4229 4.50969,3.4442 0.0911,0.01 2.51451,-2.8504 5.38544,-6.35 z"
       id="path582" /></g></svg>
