<?xml version="1.0" encoding="UTF-8" standalone="no"?>
<!-- Created with Inkscape (http://www.inkscape.org/) -->

<svg
   width="81.274597"
   height="77.443726"
   viewBox="0 0 81.274598 77.443725"
   version="1.1"
   id="svg5"
   xml:space="preserve"
   inkscape:version="1.2.2 (b0a8486541, 2022-12-01)"
   sodipodi:docname="Reystation site.svg"
   xmlns:inkscape="http://www.inkscape.org/namespaces/inkscape"
   xmlns:sodipodi="http://sodipodi.sourceforge.net/DTD/sodipodi-0.dtd"
   xmlns="http://www.w3.org/2000/svg"
   xmlns:svg="http://www.w3.org/2000/svg"><sodipodi:namedview
     id="namedview7"
     pagecolor="#ffffff"
     bordercolor="#000000"
     borderopacity="0.25"
     inkscape:showpageshadow="2"
     inkscape:pageopacity="0.0"
     inkscape:pagecheckerboard="0"
     inkscape:deskcolor="#d1d1d1"
     inkscape:document-units="px"
     showgrid="false"
     inkscape:zoom="0.24583334"
     inkscape:cx="1338.3051"
     inkscape:cy="1368.8135"
     inkscape:window-width="1366"
     inkscape:window-height="707"
     inkscape:window-x="0"
     inkscape:window-y="0"
     inkscape:window-maximized="1"
     inkscape:current-layer="layer4"
     showguides="true"
     inkscape:lockguides="false"><sodipodi:guide
       position="-656.47708,1161.0229"
       orientation="1,0"
       id="guide5387"
       inkscape:locked="false" /><sodipodi:guide
       position="1015.674,1362.6456"
       orientation="1,0"
       id="guide5495"
       inkscape:locked="false" /><sodipodi:guide
       position="-779.97876,661.83455"
       orientation="1,0"
       id="guide5783"
       inkscape:locked="false" /><sodipodi:guide
       position="1138.9397,604.30725"
       orientation="1,0"
       id="guide5785"
       inkscape:locked="false" /></sodipodi:namedview><defs
     id="defs2" /><g
     inkscape:groupmode="layer"
     id="layer3"
     inkscape:label="My services"
     transform="translate(-780.33831,-1340.8753)"><path
       style="fill:#000000;stroke-width:0.15872"
       d="m 838.57162,1418.1035 c -1.22759,-0.4381 -2.3408,-1.7412 -2.3408,-2.7401 0,-0.9358 -0.19099,-1.305 -0.77253,-1.4931 -0.31712,-0.1026 -0.91967,-0.3585 -1.339,-0.5687 l -0.7624,-0.3821 -0.50736,0.4283 c -1.1908,1.0053 -2.75651,1.2832 -4.0134,0.7124 -0.74899,-0.3402 -3.38961,-2.8912 -3.81459,-3.6851 -0.3915,-0.7314 -0.38976,-2.404 0.003,-3.1556 0.15979,-0.3055 0.46848,-0.7458 0.68599,-0.9785 l 0.39546,-0.423 -0.60944,-1.4419 -0.60943,-1.442 h -6.87764 c -4.75278,0 -6.98474,-0.055 -7.22432,-0.1773 -1.00216,-0.5125 -1.21702,-1.7544 -0.43825,-2.5332 l 0.46395,-0.4639 h 4.91416 4.91415 l 0.0671,-2.1031 c 0.0557,-1.7438 0.12409,-2.2114 0.40065,-2.7379 0.66069,-1.2577 1.80376,-1.984 3.12234,-1.984 h 0.70659 l 0.27259,-0.8333 c 0.14993,-0.4583 0.40895,-1.1047 0.57561,-1.4365 l 0.30302,-0.6033 -0.42868,-0.5078 c -0.60808,-0.7203 -1.00707,-1.6732 -1.0101,-2.4124 -0.005,-1.3179 0.26738,-1.8213 1.87856,-3.4665 0.84125,-0.8591 1.77954,-1.6898 2.08508,-1.846 1.30574,-0.6676 2.7975,-0.4882 4.00424,0.4816 0.57246,0.46 0.66409,0.4864 1.04942,0.3015 0.2322,-0.1114 0.85073,-0.3618 1.37451,-0.5566 l 0.95232,-0.354 0.11281,-0.8867 c 0.13146,-1.0333 0.40936,-1.6309 1.06178,-2.2833 0.87894,-0.879 1.33387,-0.9926 3.97445,-0.9926 2.69361,0 3.1933,0.1409 4.07932,1.15 0.55022,0.6267 0.79162,1.199 0.92269,2.1876 l 0.0953,0.7186 1.43752,0.6076 1.43753,0.6076 0.423,-0.3955 c 0.61417,-0.5742 1.36316,-0.912 2.25681,-1.0178 l 0.78507,-0.093 v -8.073 -8.073 l -34.48199,0.04 -34.48198,0.04 v 15.2372 15.2371 l 0.36241,0.8963 c 0.43852,1.0846 1.42659,2.2458 2.31548,2.7212 0.63048,0.3373 0.8641,0.3535 6.18477,0.4299 l 5.52954,0.079 0.38279,0.4454 c 0.51919,0.604 0.51915,1.5211 -9e-5,2.125 l -0.38288,0.4453 -5.21201,0.049 c -3.46605,0.033 -5.53102,-0.012 -6.16433,-0.1331 -2.87133,-0.5497 -5.34352,-3.1904 -6.03289,-6.4442 -0.34443,-1.6257 -0.34617,-47.211 -0.002,-48.8359 0.66455,-3.1364 2.90459,-5.6524 5.69354,-6.395 0.67903,-0.1808 6.05721,-0.2179 31.77418,-0.2195 33.46373,0 31.7672,-0.043 33.44881,0.8144 1.03815,0.5295 2.68173,2.2796 3.25808,3.4692 1.02909,2.1241 0.98285,1.1545 0.98285,20.6096 v 17.6858 l 0.64688,0.7018 c 1.30413,1.4148 1.60037,2.9487 0.85743,4.4396 -0.22018,0.4418 -0.53423,0.9245 -0.69788,1.0726 -0.28962,0.2621 -0.28374,0.3019 0.22014,1.4896 0.28473,0.6712 0.56083,1.3453 0.61354,1.498 0.0732,0.2122 0.27518,0.2782 0.85475,0.2793 1.08196,0 2.2719,0.7123 2.85472,1.7038 0.41532,0.7066 0.44727,0.8905 0.49936,2.8745 0.0351,1.3364 -0.0148,2.3713 -0.13494,2.8005 -0.39468,1.4096 -1.66577,2.4095 -3.27409,2.5755 -0.46899,0.048 -0.85358,0.1673 -0.85465,0.2642 -0.001,0.097 -0.25025,0.745 -0.55374,1.4402 l -0.5518,1.2641 0.46633,0.4819 c 0.98038,1.013 1.25181,2.7122 0.63634,3.9836 -0.47644,0.9842 -3.24166,3.6018 -4.06097,3.8442 -1.39612,0.413 -2.70473,0.1377 -3.63787,-0.7653 l -0.48189,-0.4664 -1.26404,0.5518 c -0.69522,0.3035 -1.34333,0.5527 -1.44023,0.5538 -0.0969,0 -0.2158,0.3856 -0.26421,0.8546 -0.15583,1.5099 -0.8514,2.5003 -2.17848,3.102 -0.6032,0.2734 -1.03505,0.3232 -2.77761,0.3203 -1.31296,0 -2.27994,-0.081 -2.65889,-0.216 z m 4.29371,-3.1384 c 0.11501,-0.115 0.19046,-0.6725 0.19046,-1.4071 0,-1.6375 0.20062,-1.8805 2.01946,-2.4463 0.76617,-0.2383 2.01487,-0.7558 2.7749,-1.15 1.68404,-0.8734 1.91747,-0.8454 3.16296,0.3794 0.69461,0.6832 0.96711,0.8564 1.22054,0.7759 0.33734,-0.107 2.25001,-2.1621 2.25001,-2.4175 0,-0.079 -0.32957,-0.4625 -0.73237,-0.8517 -0.80144,-0.7744 -1.22236,-1.5616 -1.07373,-2.0082 0.0525,-0.1576 0.41108,-0.9294 0.79692,-1.7151 0.38584,-0.7857 0.84086,-1.9285 1.01117,-2.5395 0.43585,-1.5639 0.77073,-1.8246 2.34798,-1.8277 0.67168,0 1.31315,-0.061 1.42548,-0.1321 0.1502,-0.095 0.1922,-0.5671 0.15872,-1.7831 l -0.0455,-1.6536 -1.37971,-0.083 c -1.76407,-0.1059 -2.00463,-0.3095 -2.59051,-2.1932 -0.23515,-0.756 -0.74886,-1.994 -1.14159,-2.7512 -0.65631,-1.2655 -0.69976,-1.4201 -0.53729,-1.9124 0.0972,-0.2946 0.53309,-0.8865 0.96861,-1.3155 0.43551,-0.429 0.79185,-0.8558 0.79185,-0.9486 0,-0.093 -0.53523,-0.7003 -1.1894,-1.3501 l -1.18939,-1.1815 -0.75493,0.7257 c -0.9705,0.9329 -1.45175,1.2484 -1.90446,1.2484 -0.20056,0 -0.99208,-0.3151 -1.75893,-0.7003 -0.76685,-0.3851 -1.92606,-0.8607 -2.57603,-1.0569 -0.64997,-0.1962 -1.34114,-0.4598 -1.53593,-0.5859 -0.44479,-0.2877 -0.67549,-1.1006 -0.67663,-2.3841 l -8.9e-4,-0.9972 -1.7856,0.045 -1.7856,0.045 -0.0794,1.3859 c -0.0975,1.7025 -0.329,1.9859 -2.03525,2.4918 -0.63926,0.1895 -1.76979,0.6623 -2.51229,1.0507 -1.90214,0.995 -2.21036,0.9572 -3.65712,-0.4483 l -0.82416,-0.8007 -1.19952,1.1631 c -0.65974,0.6398 -1.19953,1.2434 -1.19953,1.3414 0,0.098 0.32714,0.4966 0.72698,0.8858 0.78373,0.7628 1.17767,1.3871 1.17767,1.8662 0,0.1658 -0.26381,0.7943 -0.58625,1.3967 -0.32244,0.6024 -0.84077,1.8452 -1.15185,2.7618 -0.51503,1.5176 -0.61514,1.6914 -1.11999,1.9441 -0.37249,0.1865 -0.92639,0.2776 -1.68814,0.2778 -1.34132,3e-4 -1.32642,-0.02 -1.32642,1.7696 0,1.8134 0.0573,1.8812 1.59028,1.8812 1.15823,0 1.29966,0.036 1.72502,0.4365 0.3183,0.2998 0.57258,0.8091 0.81225,1.6268 0.19189,0.6548 0.66304,1.8037 1.047,2.5532 0.38395,0.7496 0.6981,1.5549 0.6981,1.7896 0,0.3022 -0.27825,0.726 -0.95232,1.4505 -0.52378,0.5631 -0.95233,1.0809 -0.95233,1.1507 0,0.1859 2.28025,2.4205 2.46987,2.4205 0.0885,0 0.51193,-0.3563 0.9409,-0.7918 0.42896,-0.4355 1.02027,-0.8712 1.314,-0.9681 0.49166,-0.1623 0.66241,-0.113 2.15042,0.6204 0.88899,0.4381 2.12083,0.9442 2.73743,1.1247 1.5738,0.4606 1.8445,0.7904 1.92983,2.3516 0.0371,0.6789 0.0957,1.3237 0.13019,1.4329 0.0855,0.2705 3.1043,0.2776 3.37405,0.01 z m -3.53946,-7.4967 c -1.96169,-0.4602 -3.53527,-1.257 -4.7112,-2.3858 -2.12642,-2.0412 -3.14546,-4.3665 -3.14546,-7.1774 0,-2.7314 0.91641,-4.9393 2.85461,-6.8775 1.91085,-1.9108 4.15023,-2.8546 6.77351,-2.8546 1.74497,0 2.73208,0.2228 4.2976,0.9702 2.36271,1.1279 4.24908,3.2776 5.06794,5.7754 0.52619,1.6051 0.59096,4.0529 0.14701,5.5552 -0.9629,3.2585 -3.55211,5.868 -6.76048,6.8136 -1.24508,0.367 -3.36815,0.4518 -4.52353,0.1809 z m 2.95434,-3.1067 c 3.63346,-0.6781 6.05248,-4.2144 5.31205,-7.7655 -0.4348,-2.0853 -1.63175,-3.6244 -3.55924,-4.5766 -1.15809,-0.5721 -1.25837,-0.5926 -2.87419,-0.5902 -1.56697,0 -1.74295,0.036 -2.74666,0.5245 -1.35641,0.6601 -2.48582,1.7835 -3.15066,3.134 -0.94681,1.9232 -0.79901,4.4714 0.36547,6.3011 1.12867,1.7735 3.29579,3.0274 5.38347,3.1149 0.22815,0.01 0.79954,-0.054 1.26976,-0.1422 z m 10.2653,-49.4802 c -0.045,-6.962 -0.0529,-7.1179 -0.39964,-7.8693 -0.50622,-1.0968 -1.23069,-1.9493 -2.0817,-2.4496 l -0.73892,-0.4344 H 818.1367 786.94816 l -0.65523,0.3505 c -0.88897,0.4755 -1.87702,1.6368 -2.31535,2.7212 -0.35517,0.8787 -0.36322,1.0328 -0.40984,7.8403 l -0.0476,6.944 h 34.53559 34.53558 z m -58.57913,3.4474 c -1.47434,-0.3711 -2.71183,-1.3445 -3.45748,-2.7198 -0.51227,-0.9449 -0.54502,-1.096 -0.54461,-2.5132 4.6e-4,-1.5747 0.18845,-2.1592 1.08393,-3.3704 0.88547,-1.1977 3.21755,-2.1668 4.68478,-1.9467 1.93865,0.2907 3.5229,1.3988 4.31133,3.0157 0.32601,0.6685 0.38763,1.0312 0.39103,2.3014 0.005,1.6979 -0.25001,2.4209 -1.27315,3.6162 -1.10901,1.2956 -3.50691,2.0418 -5.19583,1.6168 z m 1.99426,-3.2285 c 0.28091,-0.1197 0.6893,-0.4112 0.90754,-0.6477 0.32909,-0.3567 0.3968,-0.5886 0.3968,-1.3592 0,-0.8121 -0.0588,-0.9905 -0.46713,-1.4167 -1.37765,-1.4379 -3.73895,-0.5114 -3.73895,1.4671 0,0.6944 0.5695,1.5427 1.27292,1.8961 0.66615,0.3347 0.95953,0.3455 1.62882,0.06 z m 11.84803,3.1848 c -3.37825,-0.9567 -4.95026,-4.4977 -3.40179,-7.6626 1.11878,-2.2867 4.02768,-3.419 6.54956,-2.5495 1.11021,0.3828 2.43265,1.6013 3.00683,2.7706 0.37991,0.7736 0.44351,1.0965 0.44351,2.2522 0,1.122 -0.0693,1.4961 -0.41178,2.2221 -1.09413,2.3196 -3.83351,3.6335 -6.18633,2.9672 z m 2.13239,-3.1861 c 1.49816,-0.6259 1.79658,-2.7034 0.5245,-3.6512 -0.99151,-0.7388 -2.13569,-0.6193 -2.95006,0.3083 -0.91288,1.0397 -0.55992,2.6819 0.70119,3.2625 0.76641,0.3529 1.04163,0.3657 1.72437,0.08 z m 16.30055,3.0556 c -0.83814,-0.2681 -1.19858,-0.5039 -2.00789,-1.3132 -0.83483,-0.8348 -1.03757,-1.1521 -1.31961,-2.0653 -0.39884,-1.2912 -0.41687,-1.9759 -0.0818,-3.1043 0.47807,-1.6098 1.44487,-2.7202 3.00231,-3.448 l 0.95232,-0.4451 7.82541,-0.047 c 6.72449,-0.04 7.96377,-0.011 8.80897,0.2045 1.62889,0.4161 2.8646,1.4294 3.58215,2.9372 0.34669,0.7286 0.41556,1.0962 0.41627,2.2221 6.3e-4,1.1288 -0.0678,1.4955 -0.41944,2.2456 -0.53522,1.1416 -1.50968,2.116 -2.65128,2.6513 l -0.89645,0.4202 -8.09473,0.034 c -7.78647,0.033 -8.13364,0.022 -9.11625,-0.2926 z m 16.81102,-3.1147 c 1.55711,-0.7823 1.67443,-2.8448 0.21618,-3.8004 -0.40607,-0.2661 -0.98283,-0.2864 -8.142,-0.2864 -7.41996,0 -7.72485,0.012 -8.24254,0.3174 -1.5066,0.8897 -1.42282,2.9663 0.15205,3.7694 0.49528,0.2525 1.21533,0.2775 8.0041,0.2775 6.78567,0 7.50977,-0.025 8.01221,-0.2775 z m -39.20075,47.782 c -0.88046,-0.3219 -1.28055,-1.308 -0.87629,-2.1599 0.69698,-1.4688 2.93965,-1.0083 2.93965,0.6036 0,0.744 -0.21385,1.1305 -0.79042,1.4287 -0.47337,0.2447 -0.84934,0.2824 -1.27294,0.1276 z m -1.72738,-12.3682 c -0.20323,-0.1424 -0.46671,-0.4914 -0.5855,-0.7757 -0.20166,-0.4827 -0.10587,-0.9777 1.44488,-7.4664 0.91347,-3.8223 1.76263,-7.1049 1.88701,-7.2947 0.79935,-1.2199 2.79027,-0.6263 2.79027,0.8319 0,0.646 -3.0621,13.6637 -3.33323,14.1703 -0.40885,0.764 -1.49852,1.0283 -2.20343,0.5346 z m -7.35988,-1.2093 c -0.14277,-0.1092 -1.33603,-1.4127 -2.65167,-2.8967 -1.60003,-1.8048 -2.45214,-2.8953 -2.57347,-3.2934 -0.32229,-1.0575 -0.0404,-1.5397 2.64027,-4.5161 1.35254,-1.5017 2.59893,-2.8052 2.76976,-2.8966 1.00939,-0.5402 2.23611,0.2343 2.23611,1.4118 0,0.6797 -0.29173,1.0654 -3.28506,4.3434 -0.46291,0.5069 -0.84166,0.9843 -0.84166,1.061 0,0.077 0.92851,1.187 2.06336,2.4675 1.9299,2.1775 2.06336,2.3701 2.06336,2.9776 0,0.92 -0.6067,1.5399 -1.5072,1.5399 -0.35981,0 -0.77102,-0.089 -0.9138,-0.1984 z m 17.60044,-0.2201 c -0.32358,-0.3236 -0.41845,-0.5746 -0.41845,-1.1074 0,-0.6581 0.0923,-0.793 2.06337,-3.0158 1.13485,-1.2797 2.06336,-2.3738 2.06336,-2.4313 0,-0.057 -0.50971,-0.6726 -1.13269,-1.367 -2.91309,-3.2472 -2.99404,-3.3583 -2.99404,-4.1096 0,-0.5824 0.0797,-0.7631 0.48834,-1.1069 0.59104,-0.4973 1.36947,-0.5389 1.92388,-0.1028 0.88485,0.696 4.97944,5.4496 5.19629,6.0326 0.37165,0.9991 0.0859,1.5693 -1.91345,3.8174 -3.37511,3.7951 -3.39061,3.8093 -4.16954,3.8093 -0.53241,0 -0.78356,-0.095 -1.10707,-0.4185 z"
       id="path588" /></g></svg>
